<svg width="41" height="41" viewBox="0 0 41 41" fill="none" xmlns="http://www.w3.org/2000/svg">
<circle cx="13.6667" cy="13.6666" r="4.125" stroke="#1D1662" stroke-width="2" stroke-linecap="round"/>
<path d="M20.23 14.5938C20.6637 13.8425 21.3781 13.2943 22.216 13.0698C23.0539 12.8453 23.9467 12.9628 24.698 13.3966C25.4493 13.8303 25.9974 14.5447 26.222 15.3827C26.4465 16.2206 26.3289 17.1134 25.8952 17.8646C25.4615 18.6159 24.7471 19.1641 23.9091 19.3886C23.0712 19.6131 22.1784 19.4956 21.4272 19.0618C20.6759 18.6281 20.1277 17.9137 19.9032 17.0758C19.6787 16.2378 19.7962 15.345 20.23 14.5938L20.23 14.5938Z" stroke="#1D1662" stroke-width="2"/>
<path d="M22.9953 30.6093L21.7527 30.7452L22.9953 30.6093ZM22.0625 30.3541H5.27081V32.8541H22.0625V30.3541ZM5.5806 30.7452C5.71223 29.5417 6.11588 27.4636 7.29838 25.7172C8.43217 24.0427 10.319 22.6041 13.6666 22.6041V20.1041C9.42871 20.1041 6.79201 22.006 5.22827 24.3155C3.71324 26.5531 3.24536 29.1026 3.09542 30.4734L5.5806 30.7452ZM13.6666 22.6041C17.0143 22.6041 18.9011 24.0427 20.0349 25.7172C21.2174 27.4636 21.6211 29.5417 21.7527 30.7452L24.2379 30.4734C24.0879 29.1026 23.62 26.5531 22.105 24.3155C20.5413 22.006 17.9046 20.1041 13.6666 20.1041V22.6041ZM5.27081 30.3541C5.33425 30.3541 5.41372 30.381 5.47954 30.4501C5.55038 30.5244 5.59246 30.6368 5.5806 30.7452L3.09542 30.4734C2.94627 31.837 4.05173 32.8541 5.27081 32.8541V30.3541ZM22.0625 32.8541C23.2816 32.8541 24.387 31.837 24.2379 30.4734L21.7527 30.7452C21.7408 30.6368 21.7829 30.5244 21.8538 30.4501C21.9196 30.381 21.999 30.3541 22.0625 30.3541V32.8541Z" fill="#1D1662"/>
<path d="M22.0639 31.6042L22.0622 30.3542L22.0639 32.8542V31.6042ZM29.7203 30.5154L28.4948 30.7614V30.7614L29.7203 30.5154ZM20.1589 23.8838L19.4892 22.8284L18.2013 23.6457L19.2557 24.7479L20.1589 23.8838ZM22.9953 30.6093L24.2379 30.4734V30.4734L22.9953 30.6093ZM28.7909 30.3542H22.0639V32.8542H28.7909V30.3542ZM28.4948 30.7614C28.4733 30.6545 28.5082 30.5376 28.5763 30.4589C28.6397 30.3857 28.7225 30.3542 28.7909 30.3542V32.8542C30.0988 32.8542 31.2316 31.6931 30.9459 30.2694L28.4948 30.7614ZM23.0626 24.3125C24.8286 24.3125 26.033 25.2586 26.912 26.608C27.8114 27.9886 28.276 29.6714 28.4948 30.7614L30.9459 30.2694C30.7026 29.0575 30.16 27.0138 29.0068 25.2435C27.8332 23.4419 25.9398 21.8125 23.0626 21.8125V24.3125ZM20.8287 24.9392C21.4327 24.5559 22.1591 24.3125 23.0626 24.3125V21.8125C21.6737 21.8125 20.4844 22.1969 19.4892 22.8284L20.8287 24.9392ZM19.2557 24.7479C21.0401 26.6132 21.5927 29.2821 21.7527 30.7453L24.2379 30.4734C24.0607 28.8537 23.43 25.4949 21.0622 23.0197L19.2557 24.7479ZM21.7527 30.7453C21.7409 30.6369 21.7829 30.5246 21.8536 30.4503C21.9193 30.3813 21.9987 30.3543 22.0622 30.3542L22.0656 32.8542C23.2835 32.8525 24.3869 31.8358 24.2379 30.4734L21.7527 30.7453Z" fill="#1D1662"/>
<rect x="24.45" y="8.0501" width="8.1" height="0.9" rx="0.45" stroke="#1D1662" stroke-width="0.9" stroke-linecap="round"/>
<rect x="28.9501" y="4.45" width="8.1" height="0.9" rx="0.45" transform="rotate(90 28.9501 4.45)" stroke="#1D1662" stroke-width="0.9" stroke-linecap="round"/>
</svg>
