<svg width="40" height="40" viewBox="0 0 40 40" fill="none" xmlns="http://www.w3.org/2000/svg">
<path d="M22.0834 13.4857V7.34771C22.0834 6.91296 22.2282 6.55189 22.5178 6.2645C22.8075 5.97708 23.1664 5.83337 23.5946 5.83337H32.6622C33.0903 5.83337 33.4481 5.97708 33.7355 6.2645C34.0229 6.55189 34.1666 6.91296 34.1666 7.34771V13.4857C34.1666 13.9204 34.0218 14.2815 33.7321 14.5689C33.4425 14.8563 33.0835 15 32.6553 15H23.5878C23.1596 15 22.8018 14.8563 22.5145 14.5689C22.2271 14.2815 22.0834 13.9204 22.0834 13.4857ZM5.83337 19.3333V7.33308C5.83337 6.90808 5.97821 6.55189 6.26787 6.2645C6.55754 5.97708 6.91647 5.83337 7.34467 5.83337H16.4122C16.8404 5.83337 17.1982 5.97714 17.4855 6.26467C17.7729 6.55217 17.9166 6.90842 17.9166 7.33342V19.3336C17.9166 19.7586 17.7718 20.1148 17.4822 20.4022C17.1925 20.6896 16.8336 20.8333 16.4054 20.8333H7.33783C6.90967 20.8333 6.55189 20.6895 6.2645 20.402C5.97708 20.1145 5.83337 19.7583 5.83337 19.3333ZM22.0834 32.6666V20.6664C22.0834 20.2414 22.2282 19.8852 22.5178 19.5978C22.8075 19.3104 23.1664 19.1667 23.5946 19.1667H32.6622C33.0903 19.1667 33.4481 19.3105 33.7355 19.598C34.0229 19.8855 34.1666 20.2418 34.1666 20.6668V32.6669C34.1666 33.0919 34.0218 33.4481 33.7321 33.7355C33.4425 34.0229 33.0835 34.1666 32.6553 34.1666H23.5878C23.1596 34.1666 22.8018 34.0229 22.5145 33.7353C22.2271 33.4478 22.0834 33.0916 22.0834 32.6666ZM5.83337 32.6523V26.5143C5.83337 26.0796 5.97821 25.7185 6.26787 25.4311C6.55754 25.1437 6.91647 25 7.34467 25H16.4122C16.8404 25 17.1982 25.1437 17.4855 25.4311C17.7729 25.7185 17.9166 26.0796 17.9166 26.5143V32.6523C17.9166 33.087 17.7718 33.4481 17.4822 33.7355C17.1925 34.0229 16.8336 34.1666 16.4054 34.1666H7.33783C6.90967 34.1666 6.55189 34.0229 6.2645 33.7355C5.97708 33.4481 5.83337 33.087 5.83337 32.6523ZM8.33333 18.3333H15.4167V8.33333H8.33333V18.3333ZM24.5833 31.6667H31.6667V21.6667H24.5833V31.6667ZM24.5833 12.5H31.6667V8.33333H24.5833V12.5ZM8.33333 31.6667H15.4167V27.5H8.33333V31.6667Z" fill="#6D6D6D"/>
</svg>
